<?xml version="1.0" standalone="no"?>
<!DOCTYPE svg PUBLIC "-//W3C//DTD SVG 20010904//EN"
 "http://www.w3.org/TR/2001/REC-SVG-20010904/DTD/svg10.dtd">
<svg version="1.0" xmlns="http://www.w3.org/2000/svg"
 width="48.000000pt" height="48.000000pt" viewBox="0 0 48.000000 48.000000"
 preserveAspectRatio="xMidYMid meet">

<g transform="translate(0.000000,48.000000) scale(0.100000,-0.100000)"
fill="#ff00ff" stroke="none">
<path d="M175 425 c-83 -29 -145 -132 -130 -214 14 -77 73 -142 146 -161 161
-44 300 132 224 281 -31 58 -116 110 -180 109 -11 -1 -38 -7 -60 -15z m30
-105 c15 -22 31 -40 34 -40 4 0 20 18 37 40 16 22 31 40 34 40 3 0 23 -44 44
-96 l39 -96 -24 -19 c-31 -24 -36 -24 -43 4 -3 13 -13 40 -21 61 l-16 39 -22
-31 c-12 -18 -24 -32 -27 -32 -3 0 -15 14 -27 32 l-22 31 -16 -39 c-8 -21 -18
-48 -21 -61 -7 -28 -12 -28 -43 -4 l-24 19 39 96 c21 52 42 96 45 96 4 0 19
-18 34 -40z"/>
</g>
</svg>
